<svg width="45" height="45" xmlns="http://www.w3.org/2000/svg" viewBox="0 0 35.471 35.471">
  <defs>
    <style>
      .cls-1 {
        fill: none;
        stroke: #fff;

      }
    </style>
  </defs>
  <g id="Group_2" data-name="Group 2" transform="translate(-516.818 -297.384)">
    <path id="Subtraction_34" data-name="Subtraction 34" class="cls-1" d="M5.043,27.476h0c-.129-.121-.262-.249-.393-.38a15.913,15.913,0,0,1-3.7-16.641,15.739,15.739,0,0,0,3.7,5.805c.243.243.5.482.756.709a9.422,9.422,0,0,0,2.728,5.869,9.624,9.624,0,0,0,.819.73L5.044,27.475ZM6.977,10.455h0A10.533,10.533,0,0,1,5.4,3.94,15.873,15.873,0,0,1,27.1,4.649c.14.141.264.27.379.393L23.568,8.951a9.479,9.479,0,0,0-7.533-3.59,10.4,10.4,0,0,0-3.976.792A10.793,10.793,0,0,0,8.519,8.519a10.957,10.957,0,0,0-1.541,1.934Z" transform="translate(524.099 304.665)"/>
    <path id="Subtraction_33" data-name="Subtraction 33" class="cls-1" d="M5.537,16.421H.009C0,16.224,0,16.04,0,15.872A15.872,15.872,0,0,1,27.095,4.649a15.768,15.768,0,0,1,4.649,11.223c0,.18,0,.364-.009.547H26.208a9.607,9.607,0,0,0,.063-1.094,10.148,10.148,0,0,0-10.4-9.851,10.147,10.147,0,0,0-10.4,9.851,9.611,9.611,0,0,0,.063,1.094Z" transform="translate(539.971 332.148) rotate(-135)"/>
  </g>
</svg>
