<svg xmlns="http://www.w3.org/2000/svg" xmlns:xlink="http://www.w3.org/1999/xlink"><defs><path id="bn2ka" d="M966.66 56.05a3.61 3.61 0 1 1-7.23 0 3.61 3.61 0 0 1 7.23 0zM963.04 51a5.05 5.05 0 1 0 0 10.1 5.05 5.05 0 0 0 0-10.1z"/><path id="bn2kb" d="M968.97 62.9l-3.6-3.59 1.01-1.01 3.6 3.59z"/>
    <style>
      .cls-1 {
        fill: none;
        stroke: #fff;

      }
    </style>
  </defs><symbol id="icon-menu" viewBox="0 0 512 512">
<g>
	<g>
		<path d="M491.318,235.318H20.682C9.26,235.318,0,244.577,0,256s9.26,20.682,20.682,20.682h470.636
			c11.423,0,20.682-9.259,20.682-20.682C512,244.578,502.741,235.318,491.318,235.318z"/>
	</g>
</g>
<g>
	<g>
		<path d="M491.318,78.439H20.682C9.26,78.439,0,87.699,0,99.121c0,11.422,9.26,20.682,20.682,20.682h470.636
			c11.423,0,20.682-9.26,20.682-20.682C512,87.699,502.741,78.439,491.318,78.439z"/>
	</g>
</g>
<g>
	<g>
		<path d="M491.318,392.197H20.682C9.26,392.197,0,401.456,0,412.879s9.26,20.682,20.682,20.682h470.636
			c11.423,0,20.682-9.259,20.682-20.682S502.741,392.197,491.318,392.197z"/>
	</g>
</g>
<g>
</g>
<g>
</g>
<g>
</g>
<g>
</g>
<g>
</g>
<g>
</g>
<g>
</g>
<g>
</g>
<g>
</g>
<g>
</g>
<g>
</g>
<g>
</g>
<g>
</g>
<g>
</g>
<g>
</g>
</symbol><symbol id="icon-search" viewBox="0 0 12 12"><g><g transform="translate(-958 -51)"><use xlink:href="#bn2ka"/></g><g transform="translate(-958 -51)"><use xlink:href="#bn2kb"/></g></g></symbol><symbol id="icon-tel" viewBox="0 0 27.4 45.7">
<style type="text/css">
	.st0{fill:#3A8244;}
	.st1{fill:#5599DB;}
	.st2{fill:#044FF3;}
</style>
<g>
	<path class="st2" d="M27.4,41.2c0,2.5-2.1,4.6-4.6,4.6H4.6c-2.5,0-4.6-2.1-4.6-4.6V4.6C0,2.1,2.1,0,4.6,0h18.3
		c2.5,0,4.6,2.1,4.6,4.6V41.2z M24,10.3c0-0.6-0.5-1.1-1.1-1.1H4.6c-0.6,0-1.1,0.5-1.1,1.1v25.1c0,0.6,0.5,1.1,1.1,1.1h18.3
		c0.6,0,1.1-0.5,1.1-1.1V10.3z M16.6,4.6h-5.7c-0.3,0-0.6,0.3-0.6,0.6s0.3,0.6,0.6,0.6h5.7c0.3,0,0.6-0.3,0.6-0.6S16.9,4.6,16.6,4.6
		z M13.7,38.3c-1.6,0-2.9,1.3-2.9,2.9s1.3,2.9,2.9,2.9s2.9-1.3,2.9-2.9S15.3,38.3,13.7,38.3z"/>
</g>
</symbol><symbol id="logo" viewBox="0 0 35.471 35.471">
  
  <g id="Group_2" data-name="Group 2" transform="translate(-516.818 -297.384)">
    <path id="Subtraction_34" data-name="Subtraction 34" class="cls-1" d="M5.043,27.476h0c-.129-.121-.262-.249-.393-.38a15.913,15.913,0,0,1-3.7-16.641,15.739,15.739,0,0,0,3.7,5.805c.243.243.5.482.756.709a9.422,9.422,0,0,0,2.728,5.869,9.624,9.624,0,0,0,.819.73L5.044,27.475ZM6.977,10.455h0A10.533,10.533,0,0,1,5.4,3.94,15.873,15.873,0,0,1,27.1,4.649c.14.141.264.27.379.393L23.568,8.951a9.479,9.479,0,0,0-7.533-3.59,10.4,10.4,0,0,0-3.976.792A10.793,10.793,0,0,0,8.519,8.519a10.957,10.957,0,0,0-1.541,1.934Z" transform="translate(524.099 304.665)"/>
    <path id="Subtraction_33" data-name="Subtraction 33" class="cls-1" d="M5.537,16.421H.009C0,16.224,0,16.04,0,15.872A15.872,15.872,0,0,1,27.095,4.649a15.768,15.768,0,0,1,4.649,11.223c0,.18,0,.364-.009.547H26.208a9.607,9.607,0,0,0,.063-1.094,10.148,10.148,0,0,0-10.4-9.851,10.147,10.147,0,0,0-10.4,9.851,9.611,9.611,0,0,0,.063,1.094Z" transform="translate(539.971 332.148) rotate(-135)"/>
  </g>
</symbol></svg>